<svg xmlns="http://www.w3.org/2000/svg" width="1114" height="622" viewBox="0 0 1114 622">
  <defs>
    <style>
      .cls-1 {
        stroke: #000;
        stroke-width: 1px;
        fill-rule: evenodd;
      }
    </style>
  </defs>
  <path id="Collar_copy" data-name="Collar copy" class="cls-1" d="M226.845,55.6c-1.172.98-.622,3.265,0,6.227a46.789,46.789,0,0,0,1.337,6.227,40.736,40.736,0,0,0,3.564,6.672,48.458,48.458,0,0,0,2.674,4.448,33.141,33.141,0,0,0,4.455,4.893c2.57,2.36,5.614,5.255,7.521,6.85a97.122,97.122,0,0,0,8.519,6.494,80.783,80.783,0,0,0,8.911,4.892c4.142,2.025,9.365,4.662,12.03,5.783,4.563,1.918,8.755,3.095,13.367,4.893,3.4,1.323,10.68,4.162,11.138,4.448a10.537,10.537,0,0,0,3.565,1.334,10.12,10.12,0,0,0,6.238-1.334c5.076-2.167,10.392-4.442,15.594-6.672,6.133-2.63,13.715-6.361,20.941-10.231,7.788-4.17,15.065-8.624,21.387-16.9,2.109-2.762,5.289-8.783,8.019-14.234a29.289,29.289,0,0,0,2.674-8.007c0.262-1.761,1.621-4.985,0-7.117A4.723,4.723,0,0,0,377,52.931a31.2,31.2,0,0,1-7.575-4.893c-1.478-1.348-2.916-3.731-5.346-5.338a11.61,11.61,0,0,0-4.01-1.779,13.149,13.149,0,0,0-6.238.445c-2.524.821-18.768,2.279-28.07,3.114-5.64.506-12.18,0.8-18.713,0.89-14.375.206-30-.172-37.872-1.779-8.914-1.82-20.871-.627-24.06-0.89a5.272,5.272,0,0,0-2.673.445c-1.387.7-1.916,1.924-2.674,3.114a22.561,22.561,0,0,1-2.227,2.669c-3.135,3.328-6.6,6.114-9.357,6.227A2.176,2.176,0,0,0,226.845,55.6ZM246,63.607c0.394-.676,2.908.116,4.01,0.445,1.338,0.4,7.894,1.057,12.476,1.779a226.266,226.266,0,0,0,22.723,1.779c7.94,0.309,20.586-.038,31.634-0.445,14.144-.521,31.673-2.169,36.09-3.558,1.486-.468,2.855-0.533,4.455-0.89,1.273-.284,3.144-0.7,3.565,0,0.361,0.6-.518,1.738-0.891,2.224-1.466,1.907-1.983,3.525-3.565,5.338a64.585,64.585,0,0,1-9.8,9.341c-3.668,2.706-7.349,5.138-10.693,7.117-9.565,5.658-22.963,11.55-27.179,14.234a8.559,8.559,0,0,1-4.01,1.334,7.289,7.289,0,0,1-2.673-.444,97.241,97.241,0,0,1-12.921-5.783c-3.684-2.119-6.9-2.974-10.694-4.893-3.724-1.885-7.232-3.852-10.247-5.782-2.49-1.593-6.425-4.526-9.8-7.117a46.125,46.125,0,0,1-8.02-7.562c-1.518-1.882-2-3.493-3.565-5.338C246.508,64.929,245.746,64.049,246,63.607Zm498.128-4.448c0.119,0.774,13.186-.011,15.594,0,4.578,0.021,13.484.9,20.941,1.779,3.642,0.429,7.379,1.008,10.694,1.334,6.941,0.684,13.883.761,21.386,0.89,6.1,0.1,12.526.5,17.822,0.445,7.311-.072,15.648-0.559,24.06-1.334,5.336-.492,10.45-1.073,15.6-1.779,6.952-.954,12.669-2.419,19.6-2.669,5.745-.207,11.9.064,12.03-0.89,0.1-.743-4.548-1.93-8.02-4.448a32.034,32.034,0,0,1-3.119-2.669c-1.84-1.758-3.056-3.466-4.9-4.893-2.436-1.882-6.018-3.217-11.584-3.558a62.054,62.054,0,0,0-12.476.89c-4.253.836-13.1,0.368-20.941,0.445-5.473.053-11.223,0.049-16.931,0-9.193-.078-21.992,0-25.842-0.445-7.708-.881-23.92.137-30.3,0.89a12.614,12.614,0,0,0-5.346,1.779,16.158,16.158,0,0,0-4.01,4,30.406,30.406,0,0,1-9.357,8.007C747.366,57.8,744.066,58.729,744.132,59.159Z"/>
</svg>
