<svg xmlns="http://www.w3.org/2000/svg" width="1114" height="622" viewBox="0 0 1114 622">
  <defs>
    <style>
      .cls-1 {
        stroke: #000;
        stroke-width: 1px;
        fill-rule: evenodd;
      }
    </style>
  </defs>
  <path class="cls-1" d="M440.711,248.2c-0.048.811-.1,1.609-0.17,2.423-0.079.978-.169,1.93-0.276,2.915-0.309,2.856-.744,6.743-0.891,8.451-0.481,5.6-.144,10.4-0.446,16.013-0.105,1.961-.264,4.114-0.445,6.227-0.245,2.851-.537,5.621-0.891,8.452q-0.224,2.668-.446,5.337c-0.135,3.64-.35,7.189-0.655,10.818-0.3,3.548-.668,7-1.127,10.533q-0.224,5.559-.446,11.12c-2.152,9.544-1.276,20.884-3.564,30.246q-0.224,4-.445,8.007c-0.08,3.437-.08,6.793,0,10.23,0.076,3.292.222,6.5,0.445,9.786q0.224,12.9.446,25.8v7.562c0.268,2.69.587,5.308,0.973,7.984,0.368,2.558.78,5.044,1.254,7.584,0.471,5.173.969,10.283,1.506,15.449,0.374,3.61.761,7.188,1.168,10.794,0.23,4.942.377,9.757,0.445,14.679,0.15,10.749-.456,20.395,0,31.136q0.513,12.093,2.217,25.3c0.406,3.167.848,6.251,1.348,9.4q0.668,5.115,1.336,10.23a116.178,116.178,0,0,1,1.782,12.455q0.512,5.77.446,11.564a36.433,36.433,0,0,1-7.574,4.893,42.361,42.361,0,0,1-9.8,3.114c-6.082,1.105-13.494,2.5-17.823,3.113-3.339.473-7.541,1.1-9.8,1.335q-7.8.822-15.594,0.889l-20.5.445c-5.086.271-10.114,0.566-15.148,0.89-7.355.473-16.59,1.087-21.832,1.334-4.714.223-9.727,0.409-13.813,0.445-5.706.051-12.553-.14-19.158-0.445-6.722-.31-13.293-0.748-20.05-1.334l-16.486-.89c-5.266-.292-10.5-0.6-15.762-0.928-6.5-.406-12.942-0.835-19.436-1.3-4.363-.525-8.6-0.963-12.921-1.334-6.032-.518-11.794-1.227-17.822-1.779a71.115,71.115,0,0,1-16.04-3.559,60.24,60.24,0,0,1-12.921-6.672c-1.352-2.153.436-4.26,0.891-5.782,1.713-5.738,1.6-11.772,2.228-17.792,1.071-10.315,1.6-50.483,7.128-72.948a153.145,153.145,0,0,0,3.056-16.151,134.085,134.085,0,0,0,.954-16.764V438.13c-0.094-5.706-.24-11.279-0.445-16.9-0.177-4.835-.424-10.688-0.446-14.233-0.048-7.815.436-14.823,0.891-22.685a282.86,282.86,0,0,0,0-31.581q-0.222-3.114-.445-6.227c-0.948-4.049-1.229-10.156-2.228-14.679q-0.224-6.894-.446-13.789c-1.2-5.431-.029-11.937-1.336-17.792-3.119-13.969-2.24-30.778-4.9-44.035-0.193-1.289-.481-2.653-0.891-2.669-0.332-.013-0.646.862-0.891,1.779-0.362,1.274-.733,2.515-1.131,3.778-0.354,1.126-.715,2.223-1.1,3.339q-0.224,3.336-.446,6.672c-0.4,1.35-1.756,3.017-2.228,4.448l-3.564,13.789a88.911,88.911,0,0,1-20.05-.89A93.635,93.635,0,0,1,119.467,282c-10.29-3.615-20.654-7.467-31.189-11.564-5.787-2.319-13.435-5.5-16.931-6.672-0.758-.256-2.84-0.914-3.564-2.669a5.194,5.194,0,0,1,.446-4,61.522,61.522,0,0,0,2.673-8.452c0.4-1.8.841-3.551,1.337-5.337,1.5-5.425,3.4-9.842,5.347-15.124a154.912,154.912,0,0,0,4.9-15.568c0.677-2.675,1.263-5.305,1.782-8.006,2.784-6.6,5.336-13.617,6.238-19.127a29.958,29.958,0,0,1,2.228-8.006c0.544-1.147,1.6-2.772,2.228-4.448,1.113-2.959,1.086-5.373,1.337-8.006a69.4,69.4,0,0,1,2.228-8.9c1.018-3.477,2.256-6.266,3.119-9.785,0.608-2.48,1-4.685,1.782-7.117a60.392,60.392,0,0,1,2.228-5.782,73.332,73.332,0,0,1,7.129-12.9,68.708,68.708,0,0,1,6.238-7.561c2.25-2.381,5.7-5.886,8.02-8.007a13.146,13.146,0,0,0,3.118-3.558,9.99,9.99,0,0,1,1.337-2.224c1.917-2.119,5.1-1.822,5.792-2.224,8.314-4.842,17.376-7.6,26.733-11.565,15.28-6.479,30.914-13.257,46.338-20.016,2.891-1.267,6.082-3.646,8.911-4.893l4.455-1.334c0.454-.265,1.314-1.6,1.783-1.779l2.673-.89a22.326,22.326,0,0,0,3.564-1.779c3.276-2.02,4.8-4.164,7.575-7.117,1-1.069,2.028-2.093,3.119-3.114,1.937-.205,3.84-0.351,5.792-0.445a109.711,109.711,0,0,1,15.594.445c3.592,0.322,7.1.568,10.693,0.889,6.283,0.563,13.6,1.161,18.268,1.334,7.621,0.284,15.324-.047,23.614-0.445,7.5-.36,15.065-0.654,22.724-0.89,4.343-.615,8.863-1.4,12.475-2.224,2.664-.61,6.084-1.488,9.8,0,3.449,1.381,4.6,3.81,7.575,6.672A41.852,41.852,0,0,0,377,55.155c4.442,2.317,8.825,4.5,13.366,6.672,5.612,2.678,11.685,5.378,17.822,8.007C423.509,76.4,440.14,83.1,446.5,85.847c3,1.3,9.722,3.5,14.7,5.338,2.718,1,4.833,2.175,7.574,3.114a24.314,24.314,0,0,1,7.129,3.558,31.381,31.381,0,0,1,4.01,4c1.766,1.887,3.5,3.087,5.347,4.892a81.066,81.066,0,0,1,6.238,7.117,111.536,111.536,0,0,1,9.356,13.344,82.32,82.32,0,0,1,4.9,10.676c2.015,5.169,3.915,10.279,5.792,15.568q0.893,3.78,1.783,7.561c3.97,12.184,7.8,24.233,11.584,36.474,2.113,6.829,4.182,13.614,6.238,20.461a129.968,129.968,0,0,0,4.455,14.234c1.285,3.387,2.515,6.318,3.565,9.785,0.827,2.731,1.395,5.277,2.228,8.007,0.477,1.566,1.155,3.993,1.336,4.448a16.97,16.97,0,0,1,1.337,5.337c0.022,0.446.022,0.89,0,1.335a44.512,44.512,0,0,1-4.01,2.669,51.046,51.046,0,0,1-7.574,3.558c-1.857.681-17.7,6.826-25.4,9.341-8.143,2.661-22.375,6.709-28.07,8.451a72.029,72.029,0,0,1-13.366,2.669,61.8,61.8,0,0,1-10.694,0,8.8,8.8,0,0,1-3.584-4.716,26.96,26.96,0,0,1-.426-3.291,14.323,14.323,0,0,0-.891-3.113q-0.222-2.446-.445-4.893a2.88,2.88,0,0,1-1.337-.445,3.072,3.072,0,0,1-1.337-2.224q0.224-2.225.446-4.448a31.469,31.469,0,0,1-2.673-4.893,28.416,28.416,0,0,1-2.228-7.561c-0.14-1.441-.094-4.026-0.446-6.228-0.12-.754-0.267-1.488-0.445-2.224Zm520.405-5.782c-1.4.246-1.084,0.094-1.782,0.89-0.968,1.856-1.454,8.163-2.228,11.564q-0.222,4.227-.445,8.452c-1.3,7.958-2.471,15.716-3.565,23.574-0.7,5.029-1.393,10.412-1.782,14.679a280.079,280.079,0,0,0-.891,30.246c0.106,7.026.262,14.485,0.446,21.8,0.181,7.237.329,14.487,0.445,21.8,0.188,2.829.335,5.6,0.446,8.451,0.3,7.582.256,16.541,0,25.354-0.106,3.655-.307,7.679-0.446,11.565-0.244,6.846-.39,13.567-0.445,20.461v16.012c-1.647,7.771.7,16.942,2.227,23.575q0.669,7.562,1.337,15.123c2.2,9.945,1.761,21.524,4.01,31.581l0.891,12.9a78.972,78.972,0,0,1,1.337,8.007c0.219,1.914.106,3.441,0.445,5.337,0.722,4.034,2.168,7.06,1.337,10.676a8.642,8.642,0,0,1-3.564,5.337c-3.27,2.317-11.25,7.464-14.7,8.9a205,205,0,0,1-24.06,8.007l-5.792,1.334c-5.052,1.039-10.028,1.916-15.149,2.669-18.942,2.786-34.573,2.871-52.129,2.669-14.266-.164-28.749,0-43.664.445-6.887.067-14.541,0.115-21.849,0.147s-14.144-.087-20.924-0.592c-4.079-.3-8.484-0.771-12.921-1.335-9.535-1.211-19.272-2.84-29.407-4.892-1.8-.565-3.556-1.148-5.347-1.78-4.148-1.463-10.514-4.208-13.366-5.337-1.86-.736-3.472-1.529-5.347-2.224a54.016,54.016,0,0,1-9.357-5.338,3.832,3.832,0,0,1-1.782-4.448c0.618-2.359,1.614-12.508,2.674-19.571,1.008-6.719-.163-12.055,1.336-18.682,0.7-3.074,1.063-7.041,1.782-10.23q0.224-3.781.446-7.562c0.316-2.083.61-4.139,0.891-6.227,0.321-2.383.615-4.729,0.891-7.117q0.669-3.336,1.337-6.672a27.606,27.606,0,0,1,1.337-9.341c0.16-.459.314-0.875,0.445-1.334,0.815-2.856.514-4.826,0.446-8.007-0.017-.756.008-1.467,0-2.224-0.033-2.811-.016-7.379,0-11.12,0.028-6.785.145-13.023-.446-19.126-0.131-1.359-.31-2.646-0.445-4-0.554-5.553-.847-11.528-0.892-17.792-0.007-1.052-.012-2.268,0-3.113,0.108-7.087,1.233-13.08,2.147-19.589,1.116-7.952.158-17.231,0.081-27.115-0.031-4-.031-7.968,0-12.01-0.112-3.568-.259-7.085-0.445-10.675-0.488-9.4-1.68-22.559-2.228-30.692-0.37-5.49-.662-10.9-0.891-16.457V291.79c-0.769-3.494-.356-7.865-1.337-11.565-2.347-8.853-4.674-17.664-4.9-27.578-0.253-.835-0.9-2.738-1.337-2.668-0.414.066-.452,1.9-0.445,2.668a19.082,19.082,0,0,0-1.993,4.78,27.331,27.331,0,0,0-.68,5.006,36.352,36.352,0,0,1-.892,5.338,15.726,15.726,0,0,1-.891,2.224H678.19v1.779c-1.532,3.893-2.729,7.714-2.673,10.23a4.438,4.438,0,0,1-.891,3.114,3.592,3.592,0,0,1-1.337.89c-1.13.43-11.43,1.613-20.941-1.335-5.349-1.658-9.775-1.978-15.149-3.558-7.074-2.081-14.089-4.458-21.386-7.117-4.466-1.628-8.946-3.267-13.367-4.893-3.78-1.789-8.3-4.048-11.139-5.337-1.428-.65-4.338-1.915-4.9-4.449a4.266,4.266,0,0,1,0-1.779,46.342,46.342,0,0,0,2.674-8.006c0.55-2.357.687-4.34,1.336-6.672,0.926-3.328,2.747-6.741,3.565-8.9a56.127,56.127,0,0,0,2.227-8.007c2.028-8.819,6.087-19.134,8.02-25.353,2.225-7.154,3.843-13.82,6.238-20.906,2.538-7.51,5.486-13.839,8.02-21.351,1.859-5.507,4.03-16.045,8.02-24.464a101.66,101.66,0,0,1,19.159-27.133q3.428-3.517,7.129-6.672a7.267,7.267,0,0,0,1.336-.889,9.665,9.665,0,0,0,.892-0.89c0.949-1.119,3.835-2.881,7.574-4,1.3-.391,4.27-1.8,6.683-2.669a101.7,101.7,0,0,0,11.585-5.338c15.8-7.847,41.435-16.8,51.238-20.906,5.27-2.209,10.305-5.114,14.7-7.117a30.961,30.961,0,0,0,5.347-3.114,36.744,36.744,0,0,0,6.238-6.227,13.465,13.465,0,0,1,4.455-4,13.67,13.67,0,0,1,5.793-1.334c1.13-.021,17-0.391,22.277-0.445,6.7,0.012,13.447.012,20.05,0,2.687,0,6.059-.012,8.02,0,7.873,0.049,15.3.428,23.169,0.445A244.927,244.927,0,0,0,868,42.256a26.1,26.1,0,0,1,10.247.445,21.668,21.668,0,0,1,7.129,3.114,18.243,18.243,0,0,1,4.9,5.338l4.456,2.669c1.33,0.779,2.645,1.508,4.01,2.224,1.186,0.622,2.354,1.205,3.564,1.779,6.184,3.314,12.332,6.382,18.713,9.341,8.51,3.945,17.337,7.612,26.734,11.12,4.168,1.556,30.33,11.324,31.188,11.565A52.34,52.34,0,0,1,993.2,96.522a78.484,78.484,0,0,1,7.124,6.227c1.66,1.53,3.27,2.9,4.91,4.448,8.48,8.066,15.61,19.664,20.94,35.584,2.29,6.845,2.88,12.642,4.9,19.572,2.8,9.632,6.35,17.563,9.35,27.133,0.77,2.427,1.94,6.468,2.9,9.782,1.53,5.281,3.39,12.127,5.12,18.24,0.89,3.132,1.92,6.751,2.68,9.341,0.16,0.564,2.63,9.233,3.12,10.675,0.33,1,.63,2,0.89,3.114,0.61,2.624.3,4.488,0.89,7.117,0.8,3.55,3.03,8.443,3.56,10.675a3.388,3.388,0,0,1,0,1.779,4.113,4.113,0,0,1-1.78,2.224,30.014,30.014,0,0,1-2.74,1.767c-1.26.581-2.23,1.224-3.5,1.792-3.65,1.637-8.92,3.834-12.03,4.892-4.68,1.6-14.98,5.706-23.17,8.007-3.24.913-11.12,2.645-16.926,4-5.513,1.29-9.712,1.09-15.149,2.669-0.569.165-6.948,1.585-12.03,0.445a5.75,5.75,0,0,1-1.337-.445c-4.329-2.436-1.6-12.619-5.346-16.013a4.675,4.675,0,0,1-1.337-1.779,5.739,5.739,0,0,1,0-3.114,8.894,8.894,0,0,0-.445-4c-0.605-1.861-1.592-2.6-2.228-4.448a11.033,11.033,0,0,1-.446-4.448C961.217,249.455,961.165,245.637,961.116,242.417Z"/>
</svg>
