<svg xmlns="http://www.w3.org/2000/svg" width="1114" height="622" viewBox="0 0 1114 622">
  <defs>
    <style>
      .cls-1 {
        stroke: #000;
        stroke-width: 1px;
        fill-rule: evenodd;
      }
    </style>
  </defs>
  <path id="Sleeves_copy" data-name="Sleeves copy" class="cls-1" d="M132.055,99.135c0.378-.24.815-0.552,1.224-0.833,3.27-2.251,12.1-6.418,20.941-8.9,3.718-1.043,14.562-5.816,22.723-9.341,2.664-1.151,7.065-3.089,10.248-4.448,3.156-1.347,7.535-3.186,9.357-4,0.907-.407,6.212-2.98,8.911-4,1.913-.725,3.51-1.323,5.346-2.224,1.615-.792,3.258-1.688,4.9-2.669,2.641-1.576,4.19-2.725,6.237-2.669,3.478,0.1,7.286,2.6,7.575,5.338,0.494,4.681-9.344,9.3-16.486,12.454-12.8,5.646-32.094,14.183-38.317,16.9A133.679,133.679,0,0,0,136.844,120.1a201.472,201.472,0,0,1,5.905,19.514c2.41,9.748,4.044,20.98,7.128,32.026,0.858,3.07,1.838,5.82,2.674,8.9,2.505,9.224,3.606,16.912,7.129,25.8,0.86,2.169,1.744,4.235,2.673,6.227a61.8,61.8,0,0,1,3.564,8.006,33.973,33.973,0,0,1,1.337,12.01c-0.262,9.351-.94,19.568-2.228,22.685-0.937,2.268-2.746,5.849-2.673,9.341a16.805,16.805,0,0,1-.446,4,12.779,12.779,0,0,1-.445,1.334c-0.422,1.069-1.225,3.315-1.782,4.893-0.319.9-.614,1.783-0.892,2.669a57.687,57.687,0,0,0-2.227,10.675c-1.2-.169-2.371-0.315-3.565-0.444-5.093-.552-10.121-0.443-15.594-1.335-1.877-.305-4.067-0.8-6.238-1.334-11.308-2.791-24.174-6.466-32.971-10.231-1.8-.769-3.561-1.5-5.347-2.224-2-.807-4.453-1.786-5.792-2.224-1.866-.609-3.529-1.04-5.347-1.779-2.062-.838-3.26-1.893-5.347-2.669-1.441-.535-5.884-2.021-8.02-3.558A3.108,3.108,0,0,1,67,260.6a3.255,3.255,0,0,1,.445-2.224,21.836,21.836,0,0,0,1.337-3.559,47.445,47.445,0,0,0,1.782-7.561,38.577,38.577,0,0,1,.821-4.27A32.409,32.409,0,0,1,72.8,238.8c1.308-3.186,3.086-7.1,4.01-9.341,0.875-2.12,2.126-6.242,3.119-9.785,0.983-3.507,1.63-6.741,2.673-10.231,1.048-3.508,2.617-7.439,3.564-10.23a116.654,116.654,0,0,0,4.01-13.789,48.191,48.191,0,0,1,1.782-6.672,20,20,0,0,1,1.337-3.114c0.457-.82.937-1.375,1.337-2.224,0.977-2.073.826-3.793,0.891-5.782a36.2,36.2,0,0,1,.446-4,55.53,55.53,0,0,1,2.673-9.341c0.305-.9.684-2.014,0.891-2.669,1.666-5.258,2.045-9.524,4.01-14.678,0.568-1.491,1.65-3.762,2.673-5.783a86.832,86.832,0,0,1,8.911-14.233,68.426,68.426,0,0,1,6.684-7.562c0.985-.921,4.77-4.456,5.792-5.338a7.887,7.887,0,0,0,1.337-1.334,30.036,30.036,0,0,1,1.782-2.669A5.747,5.747,0,0,1,132.055,99.135Zm343.076-2.224c-0.887-.772-6.454-2.955-9.024-3.947-7.357-2.487-14.525-5.117-21.832-8.006-2.839-1.123-6.507-2.634-9.8-4-7.637-3.174-15.142-6.121-22.723-9.341-9.96-4.231-19.61-8.61-29.407-13.344-1.393-.732-2.811-1.511-4.01-2.224A2.256,2.256,0,0,0,377,55.6c-2.506.149-5.113,6.072-4.01,11.12a11.048,11.048,0,0,0,1.782,4c36.4,15.6,97.318,42.417,95.348,49.373-0.077.273-.826,2.591-1.224,3.946-0.47,1.6-.9,3.221-1.336,4.893-0.807,3.088-1.674,6.026-2.469,9.117-0.725,2.819-1.747,7.329-2.6,11.106-0.833,3.683-1.794,7.955-2.447,10.986-0.672,3.115-1.341,6.316-1.992,9.513-0.628,3.084-1.39,6.937-2.076,10.43-0.719,3.666-1.528,7.78-2.228,10.676-0.951,3.94-2.031,7.842-3.119,11.12a128.568,128.568,0,0,1-4.9,12.454c-1.508,3.338-3.128,6.572-4.9,9.786a47.419,47.419,0,0,0-.445,13.789,68.87,68.87,0,0,0,1.337,7.117c0.143,0.6.3,1.174,0.445,1.779,0.973,4.126.413,7.192,1.782,10.675,0.88,2.236,3.558,4.457,3.565,7.562,0,0.225-.907,3.49,0,4.892,0.6,0.928,1.561,1.017,2.227,2.224a4.087,4.087,0,0,1,.446,1.335c0.262,1.436.807,4.725,0.891,5.782,0.239,2.986.529,4.706,1.782,6.228a6.769,6.769,0,0,0,2.228,1.779c1.878,0.917,3.575.6,5.347,0.445,1.613-.14,2.838.089,4.455,0a41.534,41.534,0,0,0,8.02-1.335c10.688-2.916,25.395-7.083,30.743-8.9,5.83-1.976,13.826-4.886,16.931-5.782,2.2-.636,14.483-5.581,18.268-7.117a29.946,29.946,0,0,0,3.119-1.779,4.39,4.39,0,0,0,2.228-2.224,4.959,4.959,0,0,0-.446-3.559c-0.361-.944-0.5-1.738-0.891-2.669-1.8-4.233-2.272-9.854-4.456-15.568-0.713-1.867-1.509-3.472-2.227-5.337-1.092-2.834-1.966-5.511-2.727-8.176-2.091-7.325-5.145-16.623-7.7-25.16-2.706-9.045-5.571-18.336-8.288-26.713-1.427-4.4-2.981-9.176-4.009-12.9-0.884-3.2-1.784-6.538-2.674-9.341-0.949-2.989-1.938-5.822-3.011-8.614a113.137,113.137,0,0,0-8.573-18.074,101.7,101.7,0,0,0-6.683-9.341c-1.715-2.152-3.479-4.205-5.347-6.227-2.1-2.267-5.57-5.562-8.466-8.451-0.408-.408-2.34-2.218-2.673-2.669a7.332,7.332,0,0,0-.85-0.854ZM742.8,60.048a19.4,19.4,0,0,1,2.2-.929,20.341,20.341,0,0,1,7.6-.85c26.346,2.314,53.159,3.975,76.635,4,4.492,0.006,12.8-.453,19.6-0.89,13.233-.849,26.17-2.169,39.209-4a30.252,30.252,0,0,1,8.911-.89,15.973,15.973,0,0,1,4.455.89,17.938,17.938,0,0,1,2.674,1.334c0.974,0.613,5.428,2.72,8.02,4,5.436,2.692,11.115,5.395,16.039,7.562,3.876,1.705,8.48,3.584,12.921,5.338,5.486,2.166,12.378,4.763,18.714,7.117,7.67,2.849,18.007,6.955,21.832,8.006,1.822,0.5,3.085,1.253,4.9,1.779a28.618,28.618,0,0,1,4.9,2.669,1.552,1.552,0,0,1,.445.445,3.023,3.023,0,0,1,0,2.224,14.993,14.993,0,0,0,0,2.224c-0.063,1.758-.393,3.136-0.445,4.893-0.023.779,0.04,1.446,0,2.224a24.689,24.689,0,0,1-.891,4.893,40.16,40.16,0,0,0-1.337,7.562,324.236,324.236,0,0,0-332.828-.89,67.912,67.912,0,0,0,1.583,8.943c0.658,2.669,1.543,4.9,2.228,7.562,1.36,5.285,1.855,12.695,2.228,15.123,0.393,2.563,1.439,6.989,2.227,10.675,0.472,2.205,1.481,7.1,2.228,10.675,1.028,4.914,2.088,9.766,3.119,14.679,0.979,4.661,2,9.37,3.119,13.344,0.984,3.5,2.09,6.744,3.119,10.23,0.993,3.365,2.056,7.127,2.673,9.786,0.859,3.7,1.608,7.784,2.228,12.01,0.232,1.579.593,4.712,0.891,7.116,0.5,3.994,1.081,7.931,1.782,12.01a24.863,24.863,0,0,1-.445,3.114c-0.593,2.838-1.64,4.722-2.228,7.561-0.115.554-.3,1.751-0.446,2.669-0.148.936-.4,2.179-0.445,2.669-0.148,1.558-.132,3.3-0.891,3.558a7.174,7.174,0,0,0-.892,0c-0.593.281-.473,1.656-0.445,2.224,0.154,3.149-1.64,3.905-1.782,7.117a29.228,29.228,0,0,1-.446,4,5.11,5.11,0,0,1-.445,1.335,5.326,5.326,0,0,1-2.228,2.224,63.17,63.17,0,0,1-11.139,0,65.415,65.415,0,0,1-8.465-1.335c-6.268-1.375-13.158-3.05-17.823-4.448a308.834,308.834,0,0,1-34.307-12.454c-2.009-.889-3.766-1.822-5.792-2.669-2-.836-3.341-1.843-5.347-2.669a6.447,6.447,0,0,1-3.564-2.668,3.511,3.511,0,0,1-.446-1.78,4.525,4.525,0,0,1,.891-2.224,18.908,18.908,0,0,0,.891-2.669c0.8-2.62,1.786-5.613,1.782-6.672a9.4,9.4,0,0,1,.446-3.558c0.257-.685.6-1.107,0.891-1.779,0.476-1.1.547-2.1,0.891-3.114a14.859,14.859,0,0,1,1.337-2.669c1.333-2.374,1.47-4.591,2.228-7.561,0.642-2.518,1.5-4.624,2.227-7.117,0.29-.985.608-2.063,0.892-3.114,0.446-1.656,1.028-3.844,1.336-4.893,0.885-3.01,2.024-5.51,3.119-8.451,0.8-2.141,2.077-6.646,3.119-10.23,0.608-2.092,1.331-4.588,1.782-6.227,0.766-2.78,1.486-5.861,2.228-8.007,1.426-4.127,3.239-6.927,4.455-11.12,0.446-1.538.824-2.979,1.337-4.448,0.543-1.554,1.137-2.917,1.782-4.448a91.47,91.47,0,0,0,3.119-10.23c0.717-2.595,1.523-5.369,2.228-7.562,1.192-3.71,2.558-7.562,3.764-10.277a80.262,80.262,0,0,1,7.574-13.344,100.4,100.4,0,0,1,7.574-9.341c3.8-4.217,8.525-8.039,11.585-11.12a22.932,22.932,0,0,1,5.347-4,19.356,19.356,0,0,1,5.346-1.779l16.04-7.117,21.387-9.341c7.928-2.761,15.44-5.7,22.723-8.9C730.838,65.284,742.562,60.167,742.8,60.048Zm217.43,180.988c-0.438,6.283.451,12.333,1.337,14.234,1.163,2.492,2.432,3.794,2.673,6.672,0.168,2-.878,4.284,0,6.672,0.921,2.5,2.663,2.424,3.565,4.892,0.893,2.446-.3,4.5,0,7.117a8.916,8.916,0,0,0,2.227,5.338c2.1,1.893,5.136,1.739,8.02,1.334,3.777-.529,7.23-1.471,10.694-2.224a72.882,72.882,0,0,1,7.574-.889c6.475-.78,11.095-2.249,17.375-4,16.29-4.547,35.99-12.278,42.77-15.568,1.16-.56,2.7-1.489,3.12-3.113a3.719,3.719,0,0,0,0-1.779,30.33,30.33,0,0,0-1.28-4.611,31.96,31.96,0,0,1-1.84-5.175,46.475,46.475,0,0,1-.89-6.672,47.065,47.065,0,0,0-1.78-7.562c-1.06-3.663-3.81-13.528-4.9-16.9-3.64-11.234-4.96-20.62-9.36-31.581-3.2-8-6.21-15.085-8.46-24.019-0.69-2.723-1.13-5.275-1.78-8.007-2.99-12.544-7.48-24.366-11.14-30.691-7.47-12.907-19.351-23.569-23.172-26.244l-3.119-2.177s0,1.546,0,1.732c0,2.471-.175,5.639-0.445,8.451-0.763,7.932-2.987,16.788-4.01,23.13-0.316,1.961-.554,3.874-0.891,5.782-0.63,3.564-1.409,6.631-1.782,10.23-0.208,2-.21,3.781-0.446,5.783a64.537,64.537,0,0,1-1.782,8.9c-1.15,4.469-2.076,11.887-4.456,18.237a82.911,82.911,0,0,1-3.564,8.006c-3.44,6.707-7.155,20.667-10.693,33.36A111.163,111.163,0,0,0,960.225,241.036Z"/>
</svg>
